<svg width="125" height="153" viewBox="0 0 125 153" fill="none" xmlns="http://www.w3.org/2000/svg">
<path d="M0 0H104L125 21.5V62H112L116 66V107.5H67V153H21L4.33624e-06 131L0 0Z" fill="black"/>
<rect x="44" y="69" width="43" height="9" fill="#0AE5FB"/>
<rect x="44" y="53" width="43" height="9" fill="#0AE5FB"/>
<rect x="7" y="40" width="30" height="83" fill="white"/>
<rect x="7" y="8" width="90" height="25" fill="#FD3E3E"/>
<circle cx="31" cy="43" r="4" fill="black"/>
<circle cx="13" cy="43" r="4" fill="black"/>
<circle cx="22" cy="56" r="4" fill="black"/>
<circle cx="31" cy="69" r="4" fill="black"/>
<circle cx="13" cy="69" r="4" fill="black"/>
<circle cx="22" cy="82" r="4" fill="black"/>
<circle cx="31" cy="95" r="4" fill="black"/>
<circle cx="13" cy="95" r="4" fill="black"/>
<circle cx="22" cy="108" r="4" fill="black"/>
<circle cx="31" cy="121" r="4" fill="black"/>
<circle cx="13" cy="121" r="4" fill="black"/>
</svg>
